<svg xmlns="http://www.w3.org/2000/svg" viewBox="0 0 64 64"><path fill-rule="evenodd" d="M32.02 54.02h-.001c-1.58-.03-3.15-.19-4.69-.5v0c-.73-.13-1.48.06-2.06.53l0 0C22.3 56.21 18.84 57.58 15.2 58H15.2c-.6.06-1.14-.38-1.2-.98 -.03-.26.03-.52.18-.73h-.001c1.4-1.76 2.41-3.79 2.96-5.97h0c.1-.6-.13-1.21-.61-1.58v0c-5.31-3.95-8.47-10.15-8.54-16.76 0-12.14 10.74-22 24-22 13.25 0 24 9.86 24 22 0 12.13-10.75 22-24 22Zm-.01-8v0c1.65 0 3-1.35 3-3 0-1.66-1.35-3-3-3 -1.66 0-3 1.34-3 3H29c0 1.65 1.34 2.99 3 2.99Zm1.99-28h-3.98v0c-.56-.01-1.02.44-1.03.99 -.01.01 0 .03 0 .05l.91 17v0c.03.53.48.95 1.02.94h2.14v0c.53 0 .98-.42 1.02-.95l.91-17v0c.02-.56-.41-1.03-.97-1.06 -.02-.01-.04-.01-.06-.01Z" fill="#A6A299" /></svg>