<svg xmlns="http://www.w3.org/2000/svg" viewBox="0 0 64 64"><path fill-rule="evenodd" d="M32.01 54.02v-.001c-1.58-.03-3.15-.19-4.69-.5h-.001c-.73-.13-1.48.06-2.06.53h-.001c-2.96 2.16-6.42 3.53-10.06 3.95v0c-.6.06-1.14-.38-1.2-.98 -.03-.26.03-.52.18-.73h0c1.4-1.76 2.41-3.79 2.96-5.97v0c.1-.6-.13-1.21-.61-1.58v0c-5.31-3.95-8.47-10.15-8.54-16.76 0-12.14 10.74-22 24-22 13.25 0 24 9.86 24 22 0 12.13-10.75 22-24 22Zm0-8v0c1.65 0 3-1.35 3-3 0-1.66-1.35-3-3-3 -1.66 0-3 1.34-3 3v0c0 1.65 1.34 3 3 3Zm0-28c-4.42 0-8 3.13-8 7v0c-.01.76.08 1.52.28 2.26h-.001c.12.43.51.73.96.73h2.03v0c.54 0 .99-.45.99-1 0-.12-.02-.23-.06-.33v0c-.18-.55-.27-1.11-.26-1.68 0-1.66 1.91-3 3.84-3s3.81 1.343 3.81 3c0 4.98-5.63 4.35-5.63 11v0c0 .55.44 1 1 1h2.25v0c.55 0 1-.45 1-1 0-4.84 5.75-4.59 5.75-11 0-3.87-3.59-7-8-7Z" fill="#A6A299" /></svg>