<svg xmlns="http://www.w3.org/2000/svg" viewBox="0 0 64 64"><path fill-rule="evenodd" d="M59.53 30.72l-4.86 4.85v0c-.59.58-1.54.58-2.13 0l-2.02-2.02v0c-.32-.34-.46-.81-.37-1.26h0c.09-1.31-.46-2.58-1.48-3.41 -1.57-1.57-3.21-1.94-3.99-1.16l-1.7 1.69v0c-.79.78-2.05.78-2.83 0l-5.66-5.66v0c-.79-.79-.79-2.05-.01-2.83 0-.01 0-.01 0-.01l2.98-2.99 -.001-.001c.37-.39.37-1-.01-1.37 -3.86-3.95-8.36-2.76-11.735-.74v0c-.38.19-.85.13-1.16-.16l-.44-.44v0c-.3-.31-.29-.79.01-1.08 0-.01 0-.01 0-.01 4.846-4.85 15.11-5.79 19.71-1.2l7.09 7.09v0c.31.33.45.8.36 1.25h0c-.1 1.3.45 2.57 1.47 3.4h-.001c.82 1.01 2.09 1.56 3.4 1.47h0c.45-.09.92.04 1.25.36l2.01 2.01h0c.58.58.58 1.53 0 2.11 -.01 0-.01 0-.01 0Zm-25.35-4.28l3.36 3.36v0c.58.58.59 1.53.02 2.13l-19.9 20.78v0c-1.56 1.62-4.14 1.68-5.76.12 -.03-.03-.05-.05-.07-.07l-.68-.68h-.001c-1.59-1.59-1.6-4.17-.01-5.76 .02-.03.04-.05.06-.07l20.79-19.89v0c.59-.58 1.54-.57 2.13.02Z" fill="#337ea9" /></svg>