<svg xmlns="http://www.w3.org/2000/svg" viewBox="0 0 24 24"><path fill="currentColor" d="M19.85 4.7c-.398-1.124-1.497-1.821-2.656-1.683a2.7 2.7 0 0 0-.77.24c-.256.114-.567.274-.95.47L13 4.997c-.284.145-.507.259-.698.409a2.6 2.6 0 0 0-.942 1.563c-.045.242-.045.497-.045.823v6.506a4.27 4.27 0 0 0-2.971-1.206c-2.4 0-4.344 1.994-4.344 4.454S5.944 22 8.343 22s4.343-1.994 4.343-4.454v-6.363c.43.226.926.325 1.434.265c.261-.032.514-.125.771-.24c.255-.114.566-.274.949-.47l2.475-1.27c.285-.145.507-.259.698-.408c.49-.385.826-.942.942-1.564c.045-.242.045-.497.045-.823v-.077c0-.439 0-.796-.015-1.08a3 3 0 0 0-.135-.816"/></svg>