<!-- Fleuron from https://commons.wikimedia.org/wiki/File:Through_a_Glass_Lightly-057_SVG.svg -->
<svg xmlns="http://www.w3.org/2000/svg" version="1.1" viewBox="0 0 77.788 50" height="0.81em" class="mx-[0.1em] inline-block align-text-top"><g transform="translate(0 -85.528)"><path d="m29.211 88.365c-4.4986 2.3321-6.0904 7.68-6.7385 12.698-0.15856 1.5475-0.79052 3.2983-2.3649 3.2196-0.94306-0.0656-3.5118 0.13034-4.7557 0.80778-4.6046 2.7952 0.11832 7.2305-2.1327 10.447-0.76724 1.0516-1.7405 2.2847-2.1376 2.9745s0.14117 1.2477 1.0121 1.3131c0.87094 0.0656 2.2594 0.0742 3.4362-4e-3 1.1768-0.0783 2.1152 0.53635 2.5386 0.97405 0.97535 1.1441 0.05882 5.197 2.7157 5.7438 1.6698 0.17058 3.1128-1.1355 4.3803-1.579 2.0703-1.1153 2.7082-2.5317 2.1148-5.2566-0.37455-1.3242 0.23776-2.2348 1.1457-3.0174 0.62058-0.44071 2.7175-0.65462 3.1755 0.25571 0.71373 1.3876 0.02729 2.8904-0.02767 3.8887 0.01087 2.1786 1.7322 3.4763 2.884 4.1451 1.3818 0.58087 3.5745 0.1731 4.6196-0.42361 1.0382-0.59277 1.8751-0.12755 1.882 0.82453 0.0069 0.95208-0.72364 2.4695-1.6181 2.6942-0.8945 0.22461-3.6966 0.99748-5.3079 1.3873-2.5634 0.6201-6.3608 1.0236-10.525 0.68642-4.0089-0.63438-8.4161-3.3269-10.255-4.6359-1.8389-1.309-5.7756-5.2852-6.7694-7.396-0.99418-2.1116-1.4512-6.8071-1.4965-9.6099-0.045367-2.8028 1.4159-7.5565 2.2757-9.1008 2.3399-3.8219 6.5588-6.8647 10.962-7.1507 3.0841 0.02136 4.0278-3.4205 2.0304-4.5432-1.2758-0.72982-3.4388-0.60439-4.1247-0.25767-0.68587 0.34672-3.4034 1.5519-5.0358 2.7251-1.6324 1.1732-5.824 5.0445-7.6846 8.2824-1.8606 3.2379-2.4042 8.4414-2.4097 11.548-0.005498 3.1061 1.2492 8.1181 1.9335 9.647 2.4649 5.1158 7.3031 9.6205 12.867 12.075 4.5479 1.3769 7.8485 2.5856 12.452 2.4322 3.3125-0.31269 6.0028-1.2852 8.1821-2.3697 1.6394-0.81582 5.7926-3.1102 6.929-4.3845 0.96089-1.0775 1.7461-1.2115 2.1717-0.63545 0.42554 0.57602 1.9349 2.1121 2.8877 2.2022 0.95278 0.0902 2.0296-1.2388 2.3564-2.1672s1.1919-1.0159 1.9851-0.53182c2.7398 1.8262 3.7688 3.1705 6.3775 3.6352 2.3165 0.21288 3.5576 1.0313 5.6297 0.7472 2.6574-0.46401 3.446 0.10992 5.6357-0.50296 1.0555-0.31783 2.3724-0.9083 4.7452-3.2157 2.3727-2.3074 1.4547-5.2514 1.4883-8.3154 0.03359-3.064-1.066-5.3136-2.7787-6.7282-1.7126-1.4145-4.1597-1.9451-5.5264-1.6408-2.1206 0.84028-3.8273 1.5548-3.9186 3.799-0.04689 1.3933 1.307 3.6255 3.0817 3.8774 1.7747 0.25186 2.6322-0.60041 3.5599-0.55862 1.7589 0.13272 2.5965 1.4177 2.7003 3.8464 0.24636 3.6972-1.208 4.4292-1.7233 4.7039-0.51528 0.27474-4.373 0.43671-6.8292 0.38753-2.4562-0.0492-3.2344-0.63375-3.6675-1.0352-0.4331-0.40154-1.3529-0.51017-1.9624-0.41845-0.60945 0.0917-2.3274-0.30304-3.6131-1.1766s-4.2514-5.0409-4.9616-6.3551c-0.71017-1.3141-3.5403-5.6145-5.1286-7.6867-1.0395-1.663-3.7241-5.3276-4.8853-7.0002-1.5715-2.0255-4.6154-4.7836-6.6993-4.8668-3.632-0.23884-3.7948 2.2393-5.1527 2.6129-1.29 0.41258-1.6923-0.38336-1.6646-1.5032 0.05785-1.2643-0.68478-2.7321 0.02526-3.3565 1.1236-0.98481 2.4544-3.1392 5.2124-3.4869 1.1225-0.08434 3.3906-0.18617 5.0086-1.1161 2.2757-0.96204 4.3777 0.85418 7.5555 1.9907 0.91383 0.30164 3.0049 1.8283 5.2815 6.6937 2.2766 4.8654 1.0414 7.4805 0.63155 8.542-0.95389 2.4709-1.2841 3.6343-0.82325 4.2505 0.2199 0.29405 1.1356 1.727 1.5419 2.1623 1.7884 1.8303 2.7543-2.0507 3.5042-3.6011 0.4489-0.95604 1.6956-7.5211-0.8101-12.609-2.5057-5.088-4.9743-7.8014-10.074-10.146-2.5497-1.1722-5.2537-1.7142-7.8825-1.6718-2.6288 0.04243-5.1818 0.66852-7.4311 1.8345z" style="-inkscape-stroke:none;fill-rule:evenodd;fill:currentColor;font-variation-settings:normal;stop-color:currentColor"></path></g></svg>